<?xml version="1.0" encoding="UTF-8"?>
<!DOCTYPE svg PUBLIC "-//W3C//DTD SVG 1.1//EN" "http://www.w3.org/Graphics/SVG/1.1/DTD/svg11.dtd">
<svg xmlns="http://www.w3.org/2000/svg" version="1.1" width="512px" height="512px" style="shape-rendering:geometricPrecision; text-rendering:geometricPrecision; image-rendering:optimizeQuality; fill-rule:evenodd; clip-rule:evenodd" xmlns:xlink="http://www.w3.org/1999/xlink">
<g><path style="opacity:0.975" fill="#fefffe" d="M 249.5,47.5 C 257.187,45.996 263.687,47.996 269,53.5C 299.167,93.8333 329.333,134.167 359.5,174.5C 390.161,175.333 420.828,175.833 451.5,176C 464.398,179.23 473.231,187.064 478,199.5C 479.515,206.767 479.848,214.101 479,221.5C 461.155,284.545 443.155,347.545 425,410.5C 415.902,429.924 400.735,441.424 379.5,445C 296.833,445.667 214.167,445.667 131.5,445C 110.998,441.819 96.1647,430.986 87,412.5C 68.3558,348.59 50.0224,284.59 32,220.5C 28.8673,197.912 38.034,183.079 59.5,176C 90.1721,175.833 120.839,175.333 151.5,174.5C 181.667,134.167 211.833,93.8333 242,53.5C 244.114,50.8792 246.614,48.8792 249.5,47.5 Z M 254.5,91.5 C 276.156,118.926 297.49,146.759 318.5,175C 276.5,175.667 234.5,175.667 192.5,175C 213.794,147.553 234.46,119.719 254.5,91.5 Z M 67.5,207.5 C 192.834,207.333 318.167,207.5 443.5,208C 445.91,208.758 446.91,210.425 446.5,213C 429.902,272.889 413.069,332.723 396,392.5C 393.491,403.009 386.991,409.509 376.5,412C 295.833,412.667 215.167,412.667 134.5,412C 125.207,410.042 119.04,404.542 116,395.5C 99.2028,335.442 82.2028,275.442 65,215.5C 63.8366,212.029 64.6699,209.362 67.5,207.5 Z M 259.5,283.5 C 279.278,285.773 288.111,296.773 286,316.5C 277.979,334.173 265.145,339.007 247.5,331C 231.5,316.667 231.5,302.333 247.5,288C 251.432,285.972 255.432,284.472 259.5,283.5 Z"/></g>
<g><path style="opacity:0.965" fill="#fefffe" d="M 260.5,250.5 C 291.583,252.419 311.083,268.419 319,298.5C 322.732,327.874 311.565,349.374 285.5,363C 255.676,373.835 231.176,366.668 212,341.5C 195.644,309.438 201.477,282.271 229.5,260C 239.195,254.265 249.528,251.098 260.5,250.5 Z M 259.5,283.5 C 255.432,284.472 251.432,285.972 247.5,288C 231.5,302.333 231.5,316.667 247.5,331C 265.145,339.007 277.979,334.173 286,316.5C 288.111,296.773 279.278,285.773 259.5,283.5 Z"/></g>
</svg>
