<?xml version="1.0" encoding="UTF-8"?>
<!DOCTYPE svg PUBLIC "-//W3C//DTD SVG 1.1//EN" "http://www.w3.org/Graphics/SVG/1.1/DTD/svg11.dtd">
<svg xmlns="http://www.w3.org/2000/svg" version="1.1" width="512px" height="512px" style="shape-rendering:geometricPrecision; text-rendering:geometricPrecision; image-rendering:optimizeQuality; fill-rule:evenodd; clip-rule:evenodd" xmlns:xlink="http://www.w3.org/1999/xlink">
<g><path style="opacity:0.983" fill="#fefffe" d="M 142.5,118.5 C 147.805,118.941 152.805,120.441 157.5,123C 190.014,155.68 222.68,188.18 255.5,220.5C 288.32,188.18 320.986,155.68 353.5,123C 366.709,116.59 378.209,118.757 388,129.5C 392.667,138.833 392.667,148.167 388,157.5C 355.32,190.014 322.82,222.68 290.5,255.5C 322.82,288.32 355.32,320.986 388,353.5C 394.729,366.618 392.563,378.118 381.5,388C 372.167,394 362.833,394 353.5,388C 320.986,355.32 288.32,322.82 255.5,290.5C 222.68,322.82 190.014,355.32 157.5,388C 144.382,394.729 132.882,392.563 123,381.5C 117,372.167 117,362.833 123,353.5C 155.68,320.986 188.18,288.32 220.5,255.5C 188.18,222.68 155.68,190.014 123,157.5C 116.271,144.382 118.437,132.882 129.5,123C 133.715,120.763 138.048,119.263 142.5,118.5 Z"/></g>
</svg>
