<?xml version="1.0" encoding="UTF-8"?>
<!DOCTYPE svg PUBLIC "-//W3C//DTD SVG 1.1//EN" "http://www.w3.org/Graphics/SVG/1.1/DTD/svg11.dtd">
<svg xmlns="http://www.w3.org/2000/svg" version="1.1" width="512px" height="512px" style="shape-rendering:geometricPrecision; text-rendering:geometricPrecision; image-rendering:optimizeQuality; fill-rule:evenodd; clip-rule:evenodd" xmlns:xlink="http://www.w3.org/1999/xlink">
<g><path style="opacity:0.976" fill="#fefffe" d="M 234.5,47.5 C 322.876,43.0989 390.376,78.0989 437,152.5C 465.243,204.692 471.243,259.358 455,316.5C 428.45,393.384 375.617,441.217 296.5,460C 214.759,473.314 146.926,448.814 93,386.5C 43.8693,320.691 34.2027,249.357 64,172.5C 98.403,100.267 155.236,58.6002 234.5,47.5 Z M 254.5,79.5 C 329.08,82.9645 382.913,117.965 416,184.5C 440.365,244.894 434.698,302.228 399,356.5C 394.21,362.959 389.043,369.126 383.5,375C 382.5,375.667 381.5,375.667 380.5,375C 347.673,337.094 306.006,318.594 255.5,319.5C 204.505,318.758 162.338,337.424 129,375.5C 108.92,355.68 94.9201,332.014 87,304.5C 68.8795,228.529 89.7128,165.696 149.5,116C 180.676,92.7751 215.676,80.6084 254.5,79.5 Z"/></g>
<g><path style="opacity:0.984" fill="#fefffe" d="M 242.5,143.5 C 273.371,139.698 297.538,150.365 315,175.5C 328.837,206.227 325.837,235.227 306,262.5C 287.524,284.436 264.357,291.936 236.5,285C 209.478,273.15 193.311,252.65 188,223.5C 183.445,192.795 193.945,168.962 219.5,152C 226.893,148.082 234.559,145.248 242.5,143.5 Z"/></g>
</svg>
