<?xml version="1.0" encoding="UTF-8"?>
<!DOCTYPE svg PUBLIC "-//W3C//DTD SVG 1.1//EN" "http://www.w3.org/Graphics/SVG/1.1/DTD/svg11.dtd">
<svg xmlns="http://www.w3.org/2000/svg" version="1.1" width="512px" height="512px" style="shape-rendering:geometricPrecision; text-rendering:geometricPrecision; image-rendering:optimizeQuality; fill-rule:evenodd; clip-rule:evenodd" xmlns:xlink="http://www.w3.org/1999/xlink">
<g><path style="opacity:0.976" fill="#fefffe" d="M 203.5,47.5 C 284.159,43.3968 343.326,76.7301 381,147.5C 407.508,210.42 401.675,270.087 363.5,326.5C 395.514,358.681 427.348,391.014 459,423.5C 466.101,437.406 463.601,449.239 451.5,459C 440.91,464.688 430.577,464.021 420.5,457C 389.32,425.653 357.986,394.486 326.5,363.5C 266.826,403.599 204.492,408.099 139.5,377C 86.8595,346.986 56.3595,301.819 48,241.5C 43.024,164.94 73.1906,107.107 138.5,68C 159.07,57.2816 180.737,50.4483 203.5,47.5 Z M 218.5,97.5 C 273.776,99.2031 313.276,124.87 337,174.5C 357.239,233.055 343.739,282.221 296.5,322C 251.977,351.964 205.977,354.297 158.5,329C 112.03,298.215 92.5305,255.048 100,199.5C 111.633,149.691 141.8,117.191 190.5,102C 199.881,99.8767 209.214,98.3767 218.5,97.5 Z"/></g>
</svg>
